<svg fill="#000000" version="1.1" id="Capa_1" xmlns="http://www.w3.org/2000/svg" xmlns:xlink="http://www.w3.org/1999/xlink" 
	 width="800px" height="800px" viewBox="0 0 193.736 193.736"
	 xml:space="preserve">
<g>
	<path d="M163.459,126.139c-1.72-28.186-46.4-49.719-70.769-40.617c-0.219,0.082-0.411,0.186-0.597,0.293
		c-28.324-0.719-68.175,19.519-55.087,53.387c9.106,23.562,48.151,26.031,69.125,26.032
		C129.208,165.235,165.215,154.896,163.459,126.139z M106.192,150.854c1.618,0.01,3.24-0.021,4.865-0.078
		c0.376,0.033,0.755,0.017,1.137-0.051c0.904-0.04,1.811-0.096,2.717-0.153c0.025,0.03,0.041,0.071,0.067,0.101
		c-4.957,0.653-9.959,0.954-14.967,0.849C102.071,151.326,104.131,151.144,106.192,150.854z M83.599,156.708
		c2.961,0.567,5.935,1.058,8.924,1.388c-3.164-0.162-6.377-0.444-9.591-0.866C83.183,157.094,83.394,156.905,83.599,156.708z"/>
	<path d="M49.35,40.128C37.704,24.875,15.209,25.38,4.425,41.741C-5.64,57.01,2.93,75.539,15.462,86.38
		c8.108,7.014,21.558,10.902,27.666,2.45c0.454-0.056,0.925-0.221,1.402-0.52C61.518,77.665,60.488,54.715,49.35,40.128z
		 M50.806,67.27c0.567-2.231,0.733-4.578,0.613-6.957c0.081-0.12,0.15-0.244,0.215-0.376c0.337,3.155,0.121,6.299-0.689,9.276
		C50.928,68.569,50.878,67.921,50.806,67.27z"/>
	<path d="M72.884,32.114c-0.922,0.615-1.274,1.656-1.195,2.648c-7.795,8.365-9.45,21.916-5.251,32.327
		c5.066,12.56,19.968,14.367,30.321,6.906C117.588,58.984,97.253,15.839,72.884,32.114z M82.613,35.85
		c-0.414-0.187-0.842-0.34-1.284-0.46c4.261-0.515,7.964,0.617,11.073,3.632c-0.015-0.005-0.031-0.008-0.046-0.013
		c-0.633-0.54-1.437-0.781-2.275-0.786C88.171,36.482,85.7,35.554,82.613,35.85z"/>
	<path d="M131.677,33.131c-1.005,0.137-1.56,0.738-1.777,1.479c-0.384,0.032-0.768,0.13-1.136,0.346
		c-0.914,0.535-1.296,1.413-1.492,2.36c-0.583-0.348-1.317-0.396-2.052,0.108c-16.797,11.525-17.24,45.928,9.248,40.183
		C157.274,72.66,157.445,29.613,131.677,33.131z"/>
	<path d="M192.231,67.035c-3.626-9.364-15.854-16.538-23.952-7.555c-0.104,0.116-0.167,0.247-0.24,0.375
		c-2.318,0.107-4.421,0.895-5.956,2.462c-6.195,3.264-9.801,10.884-9.428,18.463c0.718,14.578,16.646,17.841,28.12,13.546
		C191.8,90.199,196.364,77.707,192.231,67.035z"/>
</g>
</svg>